<svg id="Layer_1" data-name="Layer 1" xmlns="http://www.w3.org/2000/svg" xmlns:xlink="http://www.w3.org/1999/xlink" viewBox="0 0 64.14 31.5"><defs><style>.cls-1,.cls-2{fill:none;}.cls-1{clip-rule:evenodd;}.cls-3{clip-path:url(#clip-path);}.cls-4{clip-path:url(#clip-path-2);}.cls-5{fill:#f4f4f4;}.cls-6{clip-path:url(#clip-path-3);}.cls-7{clip-path:url(#clip-path-5);}.cls-8{clip-path:url(#clip-path-7);}.cls-9{clip-path:url(#clip-path-9);}</style><clipPath id="clip-path"><path class="cls-1" d="M53.25,10.17c-.45-1.33-.75-1.62-1.92-1.62h-3L43.43,24.44H45.9l1-3.43h5.78l1,3.43h4.3Zm-5.61,8.51,2.17-7.25L52,18.69Z"/></clipPath><clipPath id="clip-path-2"><rect class="cls-2" x="-848.13" y="-19.45" width="960" height="72"/></clipPath><clipPath id="clip-path-3"><path class="cls-1" d="M42.78,8.55h2.51L40.44,24.44H36.63L31.43,8.55h2.81c1.09,0,1.37.28,1.94,2.08l3,10Z"/></clipPath><clipPath id="clip-path-5"><path class="cls-1" d="M27,24.45H20.31V8.55h6.92c3.24,0,4.37,2.64,2.73,5.08l-.78,1.15c5.44,2.83,3.67,9.66-2.2,9.66m-.79-8.9,1.33-2a1.88,1.88,0,0,0,.41-1.16,1.84,1.84,0,0,0-1.84-1.79H24V22.31h1.13A3.06,3.06,0,0,0,28.5,18.9c0-2-.92-3-2.31-3.36"/></clipPath><clipPath id="clip-path-7"><path class="cls-1" d="M13.54,24.45H6.87V8.55h6.92c3.24,0,4.37,2.64,2.73,5.08l-.78,1.15c5.44,2.83,3.67,9.66-2.2,9.66m-.79-8.9,1.33-2a1.88,1.88,0,0,0,.41-1.16,1.84,1.84,0,0,0-1.84-1.79h-2V22.31h1.13a3.06,3.06,0,0,0,3.32-3.41c0-2-.92-3-2.31-3.36"/></clipPath><clipPath id="clip-path-9"><path class="cls-1" d="M-77,13.5v10H-97l-2,2h24v-14Zm-21,2h14l-2,2H-98Zm0-3h4l2-2h-6Zm-3,9h22V7.5h-22Z"/></clipPath></defs><title>logo</title><g class="cls-3"><g class="cls-4"><rect class="cls-5" x="38.43" y="3.55" width="24.65" height="25.89"/></g></g><g class="cls-6"><g class="cls-4"><rect class="cls-5" x="26.43" y="3.55" width="23.85" height="25.89"/></g></g><g class="cls-7"><g class="cls-4"><rect class="cls-5" x="15.31" y="3.55" width="22.14" height="25.9"/></g></g><g class="cls-8"><g class="cls-4"><rect class="cls-5" x="1.87" y="3.55" width="22.14" height="25.9"/></g></g></svg>